HIERARCHY
ROOT ui
{
	 OFFSET 0 0 0
	 CHANNELS 3 XPosition YPosition Z Position
	 EndSite
	 {
	 OFFSET 0 -1 0
	 }
}
ROOT li
{
	 OFFSET 0 0 0
	 CHANNELS 3 XPosition YPosition Z Position
	 EndSite
	 {
	 OFFSET 0 -1 0
	 }
}
ROOT ul
{
	 OFFSET 0 0 0
	 CHANNELS 3 XPosition YPosition Z Position
	 EndSite
	 {
	 OFFSET 0 -1 0
	 }
}
ROOT ll
{
	 OFFSET 0 0 0
	 CHANNELS 3 XPosition YPosition Z Position
	 EndSite
	 {
	 OFFSET 0 -1 0
	 }
}
ROOT tt
{
	 OFFSET 0 0 0
	 CHANNELS 3 XPosition YPosition Z Position
	 EndSite
	 {
	 OFFSET 0 -1 0
	 }
}
ROOT tb
{
	 OFFSET 0 0 0
	 CHANNELS 3 XPosition YPosition Z Position
	 EndSite
	 {
	 OFFSET 0 -1 0
	 }
}
ROOT td
{
	 OFFSET 0 0 0
	 CHANNELS 3 XPosition YPosition Z Position
	 EndSite
	 {
	 OFFSET 0 -1 0
	 }
}
ROOT v
{
	 OFFSET 0 0 0
	 CHANNELS 3 XPosition YPosition Z Position
	 EndSite
	 {
	 OFFSET 0 -1 0
	 }
}
ROOT bn
{
	 OFFSET 0 0 0
	 CHANNELS 3 XPosition YPosition Z Position
	 EndSite
	 {
	 OFFSET 0 -1 0
	 }
}
MOTION
Frames: 21
Frame Time: 0.002
-0.03797540283203125	0.002725464105606079	0		0.5170768432617188	-2.49488427734375	0		-0.9314820556640625	-0.12191365814208985	0		-0.4387330017089844	-2.38678466796875	0		2.0401605224609374	-1.462490234375	0		3.377939208984375	-0.7999707641601562	0		4.64221435546875	-0.2666069641113281	0		5.90198974609375	0.29876171875	0		-0.2747049865722656	5.886869140625	0		
0.040734210968017576	-3.625600039958954E-5	0		0.5157953491210937	-2.497714599609375	0		-0.9307548217773437	-0.12277611541748047	0		-0.5248702392578125	-2.3766357421875	0		1.9942005615234375	-1.4367913818359375	0		3.39198291015625	-0.7739597778320313	0		4.62312890625	-0.2512047882080078	0		5.9054599609375	0.318019775390625	0		-0.3090581665039063	5.88241650390625	0		
-0.03652577972412109	0.0010080039501190186	0		0.5435010375976562	-2.50088623046875	0		-0.93003125	-0.12363919830322266	0		-0.46919003295898437	-2.382135009765625	0		1.9892183837890625	-1.4125777587890624	0		3.35005908203125	-0.7443132934570312	0		4.60794677734375	-0.2438662109375	0		5.89813916015625	0.3185128173828125	0		-0.2752737121582031	5.88817236328125	0		
-0.03580746078491211	1.493690013885498E-4	0		0.4912818298339844	-2.49613037109375	0		-0.99330859375	-0.12375605010986328	0		-0.5444656982421875	-2.382112548828125	0		1.9542178955078124	-1.389019775390625	0		3.3399638671875	-0.7290441284179687	0		4.583771484375	-0.2354337921142578	0		5.90058447265625	0.2737240295410156	0		-0.3417038879394531	5.87509130859375	0		
0.04592521286010742	3.5793000459671023E-4	0		0.5329315185546875	-2.50245849609375	0		-0.9086343383789063	-0.12858023071289063	0		-0.47181787109375	-2.38879833984375	0		1.9581737060546875	-1.3689114990234375	0		3.3407470703125	-0.7239025268554687	0		4.56164990234375	-0.22202816772460937	0		5.91203271484375	0.3220974426269531	0		-0.2908078308105469	5.8886591796875	0		
-0.03034239959716797	0.001410519003868103	0		0.49778018188476564	-2.4908837890625	0		-0.972822021484375	-0.12066404724121094	0		-0.5480936889648438	-2.387743896484375	0		1.9462799072265624	-1.335610107421875	0		3.311065673828125	-0.6723982543945313	0		4.561515625	-0.20987355041503905	0		5.91254296875	0.32060821533203127	0		-0.29106036376953126	5.8888310546875	0		
0.0344315414428711	0.004843264102935791	0		0.4936984558105469	-2.473653564453125	0		-0.9031533813476562	-0.12628448486328125	0		-0.4964920654296875	-2.398156982421875	0		1.9302969970703125	-1.3102476806640626	0		3.273831787109375	-0.6687967529296875	0		4.5483515625	-0.20055656433105468	0		5.9094072265625	0.3019375	0		-0.25723464965820314	5.894625	0		
-0.032929080963134766	-0.0031707839965820312	0		0.46541543579101563	-2.474123291015625	0		-0.9713753051757813	-0.12228295135498046	0		-0.5127522583007813	-2.39676123046875	0		1.9291806640625	-1.2970391845703124	0		3.260882080078125	-0.6414567260742188	0		4.51826611328125	-0.18502485656738282	0		5.91357470703125	0.31769268798828126	0		-0.30664767456054687	5.87940380859375	0		
0.04579124069213867	-0.005856163024902343	0		0.49513739013671876	-2.475242431640625	0		-0.9587556762695313	-0.13319602966308594	0		-0.5082140808105469	-2.413583251953125	0		1.850392578125	-1.255902587890625	0		3.2618017578125	-0.6262548828125	0		4.5090146484375	-0.18471263122558593	0		5.91410009765625	0.31628878784179687	0		-0.32481951904296874	5.88384619140625	0		
-0.03730402374267578	0.007367856979370117	0		0.4729552001953125	-2.468729248046875	0		-1.017969482421875	-0.13024493408203125	0		-0.5115250549316406	-2.418284912109375	0		1.836471923828125	-1.2274910888671875	0		3.234989990234375	-0.5887003784179687	0		4.49606494140625	-0.1593265838623047	0		5.91479150390625	0.3478028564453125	0		-0.27386941528320313	5.8975146484375	0		
0.04044980239868164	0.00575464916229248	0		0.4996773986816406	-2.471751708984375	0		-0.93414697265625	-0.1259236068725586	0		-0.5209164428710937	-2.430883544921875	0		1.8136103515625	-1.1949412841796876	0		3.215921875	-0.5742025146484375	0		4.47394091796875	-0.14979954528808595	0		5.91168359375	0.32931295776367187	0		-0.2740588989257812	5.8988095703125	0		
-0.029915700912475585	-0.006100532054901123	0		0.47243887329101564	-2.472109619140625	0		-0.9465052490234375	-0.1374495849609375	0		-0.5062157897949219	-2.4367255859375	0		1.8056546630859376	-1.17152685546875	0		3.21308447265625	-0.5408524169921874	0		4.44781591796875	-0.14118515014648436	0		5.91588037109375	0.34529205322265627	0		-0.23921083068847657	5.9027333984375	0		
0.04199682998657227	0.004431066989898681	0		0.524113037109375	-2.481345458984375	0		-0.9347402954101562	-0.13921652221679687	0		-0.5495234985351563	-2.443853515625	0		1.78052392578125	-1.163871826171875	0		3.18201416015625	-0.5281320190429688	0		4.458744140625	-0.1289568634033203	0		5.91643505859375	0.3441523132324219	0		-0.28858724975585937	5.8876748046875	0		
-0.0372492561340332	0.001762987971305847	0		0.47398818969726564	-2.4733525390625	0		-0.9339571533203125	-0.13981369018554687	0		-0.4750173950195313	-2.468310791015625	0		1.777666015625	-1.1334298095703126	0		3.153252197265625	-0.48939071655273436	0		4.42262255859375	-0.12113449859619141	0		5.9127978515625	0.36051583862304687	0		-0.3208717041015625	5.8804609375	0		
0.053448123931884764	-0.006837081909179687	0		0.5334869384765625	-2.49859130859375	0		-0.9291260986328125	-0.13641278076171875	0		-0.5502185668945313	-2.4669794921875	0		1.73088330078125	-1.09642919921875	0		3.1691171875	-0.4831227722167969	0		4.4115595703125	-0.10855427551269531	0		5.913357421875	0.3595465393066406	0		-0.2547934265136719	5.90414990234375	0		
-0.025567903518676757	0.010587658882141113	0		0.47959576416015626	-2.470458740234375	0		-0.93643798828125	-0.14482357788085937	0		-0.49065274047851565	-2.48616943359375	0		1.75880126953125	-1.085250244140625	0		3.126470703125	-0.43412094116210936	0		4.39950390625	-0.09491152954101563	0		5.92733251953125	0.33060626220703127	0		-0.2549975128173828	5.90465625	0		
0.04511428833007813	0.0023194661140441895	0		0.5032803649902344	-2.478179931640625	0		-0.9466456298828125	-0.14314952087402344	0		-0.5040703735351563	-2.50245947265625	0		1.7228743896484375	-1.059276123046875	0		3.109193603515625	-0.43836627197265626	0		4.3873779296875	-0.08621633911132813	0		5.91446240234375	0.3578780517578125	0		-0.2854462890625	5.885564453125	0		
-0.03113532829284668	0.002814029932022095	0		0.5020010986328125	-2.480558349609375	0		-0.9430054931640625	-0.15258480834960939	0		-0.4805142517089844	-2.519127197265625	0		1.7248399658203124	-1.04069140625	0		3.085301025390625	-0.4074805603027344	0		4.36528759765625	-0.07235341644287109	0		5.91499365234375	0.3571781005859375	0		-0.283709716796875	5.8841513671875	0		
0.043521976470947264	-0.0023949539661407473	0		0.47574346923828126	-2.477593017578125	0		-1.025361083984375	-0.1579652099609375	0		-0.5160274047851563	-2.538054443359375	0		1.6857364501953125	-1.0245772705078124	0		3.102194580078125	-0.3920199584960937	0		4.35906689453125	-0.06662612915039062	0		5.93256640625	0.345699951171875	0		-0.3170606689453125	5.8782001953125	0		
-0.025722488403320313	0.006124972820281982	0		0.5081480102539062	-2.499259765625	0		-0.93759326171875	-0.14927027893066405	0		-0.49054104614257815	-2.552637451171875	0		1.67371826171875	-0.9967265014648438	0		3.06837744140625	-0.3469179992675781	0		4.34787646484375	-0.05379303359985352	0		5.9366845703125	0.36236187744140624	0		-0.2823200378417969	5.88351025390625	0		
-0.029177982330322264	0.0019312729835510253	0		0.48102099609375	-2.47417822265625	0		-1.0039053955078125	-0.1407271728515625	0		-0.5411209106445313	-2.566281005859375	0		1.6695845947265624	-0.9729178466796875	0		3.077942626953125	-0.349276611328125	0		4.336619140625	-0.040913673400878904	0		5.93710546875	0.3619007568359375	0		-0.2665766906738281	5.894095703125	0		
